<svg width="81" height="22" viewBox="0 0 81 22" fill="none" xmlns="http://www.w3.org/2000/svg">
<path d="M10.548 10.696C13.284 10.696 14.652 11.566 14.652 13.306C14.652 14.122 14.466 14.818 14.094 15.394C13.722 15.958 13.056 16.402 12.096 16.726C11.136 17.038 9.804 17.194 8.1 17.194H0C0.096 14.866 0.144 12.688 0.144 10.66C0.144 8.632 0.096 6.454 0 4.126H4.23V4.144H8.064C9.552 4.144 10.722 4.27 11.574 4.522C12.438 4.762 13.044 5.116 13.392 5.584C13.752 6.052 13.932 6.646 13.932 7.366C13.932 8.098 13.674 8.752 13.158 9.328C12.654 9.892 11.784 10.348 10.548 10.696ZM4.23 7.42V9.094H7.686C8.43 9.094 8.946 9.028 9.234 8.896C9.534 8.764 9.684 8.524 9.684 8.176C9.684 7.9 9.528 7.708 9.216 7.6C8.916 7.48 8.406 7.42 7.686 7.42H4.23ZM7.686 13.9C8.31 13.9 8.784 13.876 9.108 13.828C9.444 13.768 9.684 13.672 9.828 13.54C9.972 13.396 10.044 13.204 10.044 12.964C10.044 12.652 9.87 12.43 9.522 12.298C9.186 12.154 8.574 12.082 7.686 12.082H4.23V13.9H7.686Z" fill="black"/>
<path d="M26.458 3.708C25.03 3.636 23.974 3.594 23.29 3.582V9.738C23.986 9.726 25.042 9.684 26.458 9.612V13.194H16V9.612C17.38 9.684 18.43 9.726 19.15 9.738V3.582C18.43 3.594 17.38 3.636 16 3.708V0.125999H26.458V3.708Z" fill="#0047FF"/>
<path d="M38.458 11.708C37.03 11.636 35.974 11.594 35.29 11.582V17.738C35.986 17.726 37.042 17.684 38.458 17.612V21.194H28V17.612C29.38 17.684 30.43 17.726 31.15 17.738V11.582C30.43 11.594 29.38 11.636 28 11.708V8.126H38.458V11.708Z" fill="#0047FF"/>
<path d="M47.02 17.194C47.092 15.43 47.128 13.804 47.128 12.316C47.128 11.788 46.996 11.368 46.732 11.056C46.48 10.744 46.156 10.588 45.76 10.588C45.364 10.588 45.028 10.768 44.752 11.128C44.476 11.476 44.314 11.956 44.266 12.568C44.242 13.48 44.23 14.128 44.23 14.512C44.23 15.328 44.254 16.222 44.302 17.194H40C40.096 15.466 40.144 13.834 40.144 12.298C40.144 10.762 40.096 9.118 40 7.366C40.792 7.402 41.398 7.42 41.818 7.42C42.262 7.42 42.868 7.402 43.636 7.366L44.158 10.012C44.434 9.052 44.866 8.344 45.454 7.888C46.042 7.42 46.726 7.186 47.506 7.186C48.226 7.186 48.85 7.348 49.378 7.672C49.906 7.984 50.302 8.41 50.566 8.95C50.842 9.49 50.98 10.096 50.98 10.768V13.36C50.98 14.956 51.01 16.234 51.07 17.194H47.02Z" fill="black"/>
<path d="M61.0116 7.366H64.4676C64.4076 9.334 64.3776 12.13 64.3776 15.754C64.3776 17.182 64.0896 18.352 63.5136 19.264C62.9496 20.176 62.1996 20.836 61.2636 21.244C60.3276 21.664 59.2836 21.874 58.1316 21.874C56.9916 21.874 55.9716 21.706 55.0716 21.37C54.1716 21.046 53.4876 20.608 53.0196 20.056L53.8296 17.302C54.4776 17.674 55.0896 17.938 55.6656 18.094C56.2416 18.262 56.8416 18.346 57.4656 18.346C59.5056 18.346 60.5256 17.482 60.5256 15.754C60.5256 15.502 60.5316 15.322 60.5436 15.214C60.5436 15.142 60.5436 15.046 60.5436 14.926C60.5556 14.806 60.5556 14.65 60.5436 14.458C59.9316 16.162 58.6356 17.014 56.6556 17.014C55.8516 17.014 55.1316 16.798 54.4956 16.366C53.8716 15.934 53.3856 15.352 53.0376 14.62C52.6896 13.876 52.5156 13.06 52.5156 12.172C52.5156 11.26 52.6896 10.426 53.0376 9.67C53.3856 8.902 53.8716 8.296 54.4956 7.852C55.1196 7.408 55.8216 7.186 56.6016 7.186C58.6296 7.186 59.9496 7.9 60.5616 9.328L61.0116 7.366ZM58.5276 14.134C58.8036 14.134 59.0916 14.074 59.3916 13.954C59.6916 13.822 59.9496 13.618 60.1656 13.342C60.3816 13.054 60.4896 12.7 60.4896 12.28C60.4896 11.536 60.3216 11.008 59.9856 10.696C59.6496 10.372 59.1516 10.21 58.4916 10.21C57.9156 10.21 57.4596 10.402 57.1236 10.786C56.7876 11.17 56.6196 11.668 56.6196 12.28C56.6196 12.832 56.7996 13.282 57.1596 13.63C57.5316 13.966 57.9876 14.134 58.5276 14.134Z" fill="black"/>
<path d="M75.5402 10.498L80.7962 17.194H75.5942L73.0022 13.666L70.3922 17.194H65.1902L70.4462 10.498L65.3702 4.126H70.5722L73.0022 7.366L75.4142 4.126H80.6162L75.5402 10.498Z" fill="black"/>
</svg>
