<svg width="26" height="26" viewBox="0 0 26 26" fill="none" xmlns="http://www.w3.org/2000/svg">
<path d="M8.45036 19.2658C8.92706 19.2658 9.33235 19.099 9.66621 18.7654C9.99983 18.4315 10.1666 18.0263 10.1666 17.5495C10.1666 17.0728 9.99983 16.6676 9.66621 16.3337C9.33235 16.0001 8.92706 15.8333 8.45036 15.8333C7.97365 15.8333 7.56836 16.0001 7.2345 16.3337C6.90088 16.6676 6.73406 17.0728 6.73406 17.5495C6.73406 18.0263 6.90088 18.4315 7.2345 18.7654C7.56836 19.099 7.97365 19.2658 8.45036 19.2658ZM8.45036 10.1666C8.92706 10.1666 9.33235 9.99977 9.66621 9.66615C9.99983 9.33229 10.1666 8.927 10.1666 8.45029C10.1666 7.97358 9.99983 7.5683 9.66621 7.23444C9.33235 6.90082 8.92706 6.734 8.45036 6.734C7.97365 6.734 7.56836 6.90082 7.2345 7.23444C6.90088 7.5683 6.73406 7.97358 6.73406 8.45029C6.73406 8.927 6.90088 9.33229 7.2345 9.66615C7.56836 9.99977 7.97365 10.1666 8.45036 10.1666ZM17.5496 19.2658C18.0263 19.2658 18.4316 19.099 18.7655 18.7654C19.0991 18.4315 19.2659 18.0263 19.2659 17.5495C19.2659 17.0728 19.0991 16.6676 18.7655 16.3337C18.4316 16.0001 18.0263 15.8333 17.5496 15.8333C17.0729 15.8333 16.6676 16.0001 16.3338 16.3337C16.0001 16.6676 15.8333 17.0728 15.8333 17.5495C15.8333 18.0263 16.0001 18.4315 16.3338 18.7654C16.6676 19.099 17.0729 19.2658 17.5496 19.2658ZM17.5496 10.1666C18.0263 10.1666 18.4316 9.99977 18.7655 9.66615C19.0991 9.33229 19.2659 8.927 19.2659 8.45029C19.2659 7.97358 19.0991 7.5683 18.7655 7.23444C18.4316 6.90082 18.0263 6.734 17.5496 6.734C17.0729 6.734 16.6676 6.90082 16.3338 7.23444C16.0001 7.5683 15.8333 7.97358 15.8333 8.45029C15.8333 8.927 16.0001 9.33229 16.3338 9.66615C16.6676 9.99977 17.0729 10.1666 17.5496 10.1666ZM3.51929 25.0416C2.80364 25.0416 2.1979 24.7937 1.70206 24.2978C1.20623 23.802 0.958313 23.1963 0.958313 22.4806V3.51923C0.958313 2.80358 1.20623 2.19784 1.70206 1.702C2.1979 1.20617 2.80364 0.958252 3.51929 0.958252H22.4807C23.1963 0.958252 23.8021 1.20617 24.2979 1.702C24.7937 2.19784 25.0416 2.80358 25.0416 3.51923V22.4806C25.0416 23.1963 24.7937 23.802 24.2979 24.2978C23.8021 24.7937 23.1963 25.0416 22.4807 25.0416H3.51929ZM3.51929 22.9166H22.4807C22.5898 22.9166 22.6896 22.8711 22.7803 22.7802C22.8712 22.6896 22.9166 22.5897 22.9166 22.4806V3.51923C22.9166 3.41015 22.8712 3.31027 22.7803 3.21961C22.6896 3.1287 22.5898 3.08325 22.4807 3.08325H3.51929C3.41021 3.08325 3.31033 3.1287 3.21967 3.21961C3.12876 3.31027 3.08331 3.41015 3.08331 3.51923V22.4806C3.08331 22.5897 3.12876 22.6896 3.21967 22.7802C3.31033 22.8711 3.41021 22.9166 3.51929 22.9166Z" fill="#0047FF"/>
</svg>
