<svg width="16" height="14" viewBox="0 0 16 14" fill="none" xmlns="http://www.w3.org/2000/svg">
<path d="M15.9168 2.25646V11.7435C15.9168 12.1645 15.771 12.5208 15.4793 12.8125C15.1877 13.1042 14.8313 13.25 14.4104 13.25H1.58995C1.16898 13.25 0.812663 13.1042 0.520996 12.8125C0.229329 12.5208 0.0834961 12.1645 0.0834961 11.7435V2.25646C0.0834961 1.83549 0.229329 1.47917 0.520996 1.1875C0.812663 0.895833 1.16898 0.75 1.58995 0.75H14.4104C14.8313 0.75 15.1877 0.895833 15.4793 1.1875C15.771 1.47917 15.9168 1.83549 15.9168 2.25646ZM1.3335 4.00333H14.6668V2.25646C14.6668 2.19229 14.6401 2.13354 14.5866 2.08021C14.5333 2.02674 14.4745 2 14.4104 2H1.58995C1.52579 2 1.46704 2.02674 1.4137 2.08021C1.36023 2.13354 1.3335 2.19229 1.3335 2.25646V4.00333ZM1.3335 6.66333V11.7435C1.3335 11.8077 1.36023 11.8665 1.4137 11.9198C1.46704 11.9733 1.52579 12 1.58995 12H14.4104C14.4745 12 14.5333 11.9733 14.5866 11.9198C14.6401 11.8665 14.6668 11.8077 14.6668 11.7435V6.66333H1.3335Z" fill="#0047FF"/>
</svg>
