<svg width="26" height="28" viewBox="0 0 26 28" fill="none" xmlns="http://www.w3.org/2000/svg">
<path d="M11.9375 24.7231V14.6102L3.08333 9.48291V19.3507C3.08333 19.4232 3.10151 19.4913 3.13787 19.5551C3.17423 19.6186 3.22865 19.673 3.30114 19.7183L11.9375 24.7231ZM14.0625 24.7231L22.6988 19.7183C22.7713 19.673 22.8258 19.6186 22.8621 19.5551C22.8985 19.4913 22.9167 19.4232 22.9167 19.3507V9.48291L14.0625 14.6102V24.7231ZM13 12.7795L21.7479 7.72306L13.2178 2.78916C13.1453 2.74383 13.0727 2.72116 13 2.72116C12.9273 2.72116 12.8547 2.74383 12.7822 2.78916L4.25208 7.72306L13 12.7795ZM2.239 21.5844C1.83572 21.3521 1.52145 21.0416 1.2962 20.653C1.07095 20.2641 0.958328 19.8372 0.958328 19.3723V8.6276C0.958328 8.1627 1.07095 7.73581 1.2962 7.34693C1.52145 6.95829 1.83572 6.64781 2.239 6.41547L11.7197 0.958475C12.1227 0.725905 12.5495 0.609619 13 0.609619C13.4505 0.609619 13.8773 0.725905 14.2803 0.958475L23.761 6.41547C24.1643 6.64781 24.4785 6.95829 24.7038 7.34693C24.929 7.73581 25.0417 8.1627 25.0417 8.6276V19.3723C25.0417 19.8372 24.929 20.2641 24.7038 20.653C24.4785 21.0416 24.1643 21.3521 23.761 21.5844L14.2803 27.0414C13.8773 27.274 13.4505 27.3903 13 27.3903C12.5495 27.3903 12.1227 27.274 11.7197 27.0414L2.239 21.5844Z" fill="#0047FF"/>
</svg>
