<svg width="18" height="18" viewBox="0 0 18 18" fill="none" xmlns="http://www.w3.org/2000/svg">
<path d="M0.955046 17.125C1.32574 16.0972 1.57171 15.0462 1.69296 13.9718C1.81421 12.8977 1.88873 11.8173 1.9165 10.7308C1.37484 10.5437 0.926921 10.2058 0.572754 9.71706C0.218587 9.2283 0.0415039 8.64206 0.0415039 7.9583V6.64414C1.60664 6.12705 3.20171 5.34025 4.82671 4.28372C6.45171 3.22705 7.84275 2.10685 8.99984 0.923096C10.1569 2.10685 11.548 3.22705 13.173 4.28372C14.798 5.34025 16.393 6.12705 17.9582 6.64414V7.9583C17.9582 8.64206 17.7811 9.2283 17.4269 9.71706C17.0728 10.2058 16.6248 10.5437 16.0832 10.7308C16.1109 11.8173 16.1855 12.8977 16.3067 13.9718C16.428 15.0462 16.6739 16.0972 17.0446 17.125H0.955046ZM3.019 6.7083H14.9807C13.7905 6.11858 12.6906 5.46608 11.6809 4.7508C10.6713 4.03553 9.77762 3.32796 8.99984 2.6281C8.22206 3.32796 7.32838 4.03553 6.3188 4.7508C5.30907 5.46608 4.20914 6.11858 3.019 6.7083ZM11.0832 9.62497C11.5105 9.62497 11.8605 9.45935 12.133 9.1281C12.4053 8.79699 12.5415 8.40705 12.5415 7.9583H9.62484C9.62484 8.40705 9.76102 8.79699 10.0334 9.1281C10.3059 9.45935 10.6558 9.62497 11.0832 9.62497ZM6.9165 9.62497C7.34387 9.62497 7.6938 9.45935 7.9663 9.1281C8.23866 8.79699 8.37484 8.40705 8.37484 7.9583H5.45817C5.45817 8.40705 5.59435 8.79699 5.86671 9.1281C6.13921 9.45935 6.48914 9.62497 6.9165 9.62497ZM2.74984 9.62497C3.1772 9.62497 3.52713 9.45935 3.79963 9.1281C4.07199 8.79699 4.20817 8.40705 4.20817 7.9583H1.2915C1.2915 8.40705 1.42768 8.79699 1.70005 9.1281C1.97255 9.45935 2.32248 9.62497 2.74984 9.62497ZM2.60234 15.875H5.28838C5.42407 14.9882 5.52796 14.1071 5.60005 13.2316C5.67213 12.3561 5.72637 11.4723 5.76275 10.5802C5.58956 10.4946 5.4231 10.3896 5.26338 10.2652C5.10366 10.1407 4.96025 9.98289 4.83317 9.79164C4.63012 10.0801 4.38706 10.313 4.104 10.4904C3.82081 10.6677 3.50831 10.7831 3.1665 10.8364C3.13873 11.6923 3.08741 12.539 3.01255 13.3766C2.93782 14.2143 2.80109 15.0471 2.60234 15.875ZM6.55109 15.875H11.4486C11.3215 15.0416 11.224 14.2096 11.1561 13.3789C11.0883 12.5482 11.0362 11.7093 10.9998 10.8621C10.5853 10.8611 10.2033 10.7637 9.854 10.5698C9.5047 10.3757 9.21998 10.11 8.99984 9.77247C8.7797 10.11 8.49067 10.3757 8.13275 10.5698C7.77484 10.7637 7.3972 10.8611 6.99984 10.8621C6.96345 11.7093 6.91137 12.5482 6.84359 13.3789C6.77567 14.2096 6.67817 15.0416 6.55109 15.875ZM12.7113 15.875H15.3973C15.1986 15.0471 15.0619 14.2143 14.9871 13.3766C14.9123 12.539 14.8609 11.6923 14.8332 10.8364C14.4914 10.7831 14.1741 10.6677 13.8813 10.4904C13.5885 10.313 13.3503 10.0748 13.1665 9.7756C13.0501 9.97212 12.9094 10.134 12.7442 10.2612C12.5792 10.3883 12.4101 10.4946 12.2369 10.5802C12.2733 11.4723 12.3297 12.3561 12.4061 13.2316C12.4825 14.1071 12.5842 14.9882 12.7113 15.875ZM15.2498 9.62497C15.6772 9.62497 16.0271 9.45935 16.2996 9.1281C16.572 8.79699 16.7082 8.40705 16.7082 7.9583H13.7915C13.7915 8.40705 13.9277 8.79699 14.2 9.1281C14.4725 9.45935 14.8225 9.62497 15.2498 9.62497Z" fill="#0047FF"/>
</svg>
