<svg width="26" height="26" viewBox="0 0 26 26" fill="none" xmlns="http://www.w3.org/2000/svg">
<path d="M3.51929 25.0416C2.80364 25.0416 2.1979 24.7937 1.70206 24.2978C1.20623 23.802 0.958313 23.1963 0.958313 22.4806V3.51923C0.958313 2.80358 1.20623 2.19784 1.70206 1.702C2.1979 1.20617 2.80364 0.958252 3.51929 0.958252H22.4807C23.1963 0.958252 23.8021 1.20617 24.2979 1.702C24.7937 2.19784 25.0416 2.80358 25.0416 3.51923V22.4806C25.0416 23.1963 24.7937 23.802 24.2979 24.2978C23.8021 24.7937 23.1963 25.0416 22.4807 25.0416H3.51929ZM3.51929 22.9166H8.27044V17.7295H3.08331V22.4806C3.08331 22.6079 3.12416 22.7123 3.20585 22.794C3.28755 22.8757 3.39203 22.9166 3.51929 22.9166ZM10.3954 22.9166H15.6045V17.7295H10.3954V22.9166ZM17.7295 22.9166H22.4807C22.6079 22.9166 22.7124 22.8757 22.7941 22.794C22.8758 22.7123 22.9166 22.6079 22.9166 22.4806V17.7295H17.7295V22.9166ZM3.08331 15.6045H8.27044V10.3954H3.08331V15.6045ZM10.3954 15.6045H15.6045V10.3954H10.3954V15.6045ZM17.7295 15.6045H22.9166V10.3954H17.7295V15.6045ZM3.08331 8.27038H8.27044V3.08325H3.51929C3.39203 3.08325 3.28755 3.1241 3.20585 3.20579C3.12416 3.28749 3.08331 3.39197 3.08331 3.51923V8.27038ZM10.3954 8.27038H15.6045V3.08325H10.3954V8.27038ZM17.7295 8.27038H22.9166V3.51923C22.9166 3.39197 22.8758 3.28749 22.7941 3.20579C22.7124 3.1241 22.6079 3.08325 22.4807 3.08325H17.7295V8.27038Z" fill="#0047FF"/>
</svg>
