<svg width="32" height="16" viewBox="0 0 32 16" fill="none" xmlns="http://www.w3.org/2000/svg">
<path d="M7.91667 10.2882C7.28271 10.2882 6.74284 10.0653 6.29706 9.61952C5.85128 9.17375 5.6284 8.63388 5.6284 7.99992C5.6284 7.36596 5.85128 6.82609 6.29706 6.38031C6.74284 5.93454 7.28271 5.71165 7.91667 5.71165C8.55062 5.71165 9.09049 5.93454 9.53627 6.38031C9.98205 6.82609 10.2049 7.36596 10.2049 7.99992C10.2049 8.63388 9.98205 9.17375 9.53627 9.61952C9.09049 10.0653 8.55062 10.2882 7.91667 10.2882ZM7.91667 15.7916C5.75531 15.7916 3.91635 15.0333 2.39981 13.5168C0.883271 12.0002 0.125 10.1613 0.125 7.99992C0.125 5.83856 0.883271 3.99961 2.39981 2.48306C3.91635 0.966522 5.75531 0.208252 7.91667 0.208252C9.4351 0.208252 10.8082 0.600078 12.036 1.38373C13.2638 2.16762 14.2009 3.19246 14.8474 4.45825H27.6002L31.1419 7.99992L25.693 13.4211L23.064 11.4463L20.367 13.4484L17.6017 11.5416H14.8474C14.2009 12.7984 13.2638 13.8209 12.036 14.609C10.8082 15.3974 9.4351 15.7916 7.91667 15.7916ZM7.91667 13.6666C9.27525 13.6666 10.4517 13.2561 11.4459 12.4351C12.4404 11.6142 13.0894 10.608 13.3928 9.41658H18.2693L20.3097 10.8279L23.0778 8.80352L25.4833 10.6427L28.1261 7.99992L26.7095 6.58325H13.3928C13.0894 5.39184 12.4404 4.38565 11.4459 3.56469C10.4517 2.74373 9.27525 2.33325 7.91667 2.33325C6.35833 2.33325 5.02431 2.88811 3.91458 3.99784C2.80486 5.10756 2.25 6.44159 2.25 7.99992C2.25 9.55825 2.80486 10.8923 3.91458 12.002C5.02431 13.1117 6.35833 13.6666 7.91667 13.6666Z" fill="#0047FF"/>
</svg>
