<svg width="16" height="16" viewBox="0 0 16 16" fill="none" xmlns="http://www.w3.org/2000/svg">
<path d="M8.00016 15.9166C6.91475 15.9166 5.89044 15.7086 4.92725 15.2925C3.96405 14.8764 3.12405 14.3098 2.40725 13.5929C1.6903 12.8761 1.12377 12.0361 0.707663 11.0729C0.291552 10.1097 0.0834961 9.0854 0.0834961 7.99998C0.0834961 6.90595 0.291552 5.87949 0.707663 4.9206C1.12377 3.96172 1.6903 3.12387 2.40725 2.40706C3.12405 1.69012 3.96405 1.12359 4.92725 0.70748C5.89044 0.291369 6.91475 0.083313 8.00016 0.083313C9.09419 0.083313 10.1206 0.291369 11.0795 0.70748C12.0384 1.12359 12.8763 1.69012 13.5931 2.40706C14.31 3.12387 14.8766 3.96172 15.2927 4.9206C15.7088 5.87949 15.9168 6.90595 15.9168 7.99998C15.9168 9.0854 15.7088 10.1097 15.2927 11.0729C14.8766 12.0361 14.31 12.8761 13.5931 13.5929C12.8763 14.3098 12.0384 14.8764 11.0795 15.2925C10.1206 15.7086 9.09419 15.9166 8.00016 15.9166ZM8.00016 14.6489C8.42544 14.0849 8.78336 13.516 9.07391 12.9423C9.36447 12.3685 9.60114 11.7414 9.78391 11.0608H6.21641C6.40989 11.7628 6.64926 12.4006 6.93454 12.9744C7.21968 13.5481 7.57488 14.1063 8.00016 14.6489ZM6.38641 14.4198C6.06697 13.9614 5.78009 13.4404 5.52579 12.8566C5.27148 12.2728 5.07384 11.6741 4.93287 11.0608H2.106C2.54613 11.9262 3.13641 12.6533 3.87683 13.2421C4.61725 13.8307 5.45377 14.2232 6.38641 14.4198ZM9.61391 14.4198C10.5466 14.2232 11.3831 13.8307 12.1235 13.2421C12.8639 12.6533 13.4542 11.9262 13.8943 11.0608H11.0675C10.8997 11.6794 10.6886 12.2807 10.4343 12.8646C10.1802 13.4485 9.90669 13.9669 9.61391 14.4198ZM1.58183 9.81081H4.67975C4.62739 9.50109 4.5894 9.19741 4.56579 8.89977C4.54232 8.60227 4.53058 8.30234 4.53058 7.99998C4.53058 7.69762 4.54232 7.39769 4.56579 7.10019C4.5894 6.80255 4.62739 6.49887 4.67975 6.18915H1.58183C1.50169 6.4722 1.4403 6.76651 1.39766 7.07206C1.35488 7.37762 1.3335 7.68692 1.3335 7.99998C1.3335 8.31304 1.35488 8.62234 1.39766 8.9279C1.4403 9.23345 1.50169 9.52776 1.58183 9.81081ZM5.92954 9.81081H10.0708C10.123 9.50109 10.1609 9.20012 10.1845 8.9079C10.208 8.61567 10.2197 8.31304 10.2197 7.99998C10.2197 7.68692 10.208 7.38428 10.1845 7.09206C10.1609 6.79984 10.123 6.49887 10.0708 6.18915H5.92954C5.87732 6.49887 5.8394 6.79984 5.81579 7.09206C5.79232 7.38428 5.78058 7.68692 5.78058 7.99998C5.78058 8.31304 5.79232 8.61567 5.81579 8.9079C5.8394 9.20012 5.87732 9.50109 5.92954 9.81081ZM11.3206 9.81081H14.4185C14.4986 9.52776 14.56 9.23345 14.6027 8.9279C14.6454 8.62234 14.6668 8.31304 14.6668 7.99998C14.6668 7.68692 14.6454 7.37762 14.6027 7.07206C14.56 6.76651 14.4986 6.4722 14.4185 6.18915H11.3206C11.3729 6.49887 11.4109 6.80255 11.4345 7.10019C11.458 7.39769 11.4697 7.69762 11.4697 7.99998C11.4697 8.30234 11.458 8.60227 11.4345 8.89977C11.4109 9.19741 11.3729 9.50109 11.3206 9.81081ZM11.0675 4.93915H13.8943C13.4489 4.06304 12.8627 3.33595 12.1356 2.7579C11.4085 2.17998 10.5679 1.7847 9.61391 1.57206C9.93336 2.05706 10.2175 2.58755 10.4664 3.16352C10.7154 3.73935 10.9158 4.33123 11.0675 4.93915ZM6.21641 4.93915H9.78391C9.59044 4.24248 9.34711 3.60061 9.05391 3.01352C8.76058 2.42644 8.40933 1.87227 8.00016 1.35102C7.591 1.87227 7.23975 2.42644 6.94641 3.01352C6.65322 3.60061 6.40989 4.24248 6.21641 4.93915ZM2.106 4.93915H4.93287C5.08454 4.33123 5.28488 3.73935 5.53391 3.16352C5.7828 2.58755 6.06697 2.05706 6.38641 1.57206C5.42697 1.7847 4.58509 2.18137 3.86079 2.76206C3.13634 3.34262 2.55141 4.06831 2.106 4.93915Z" fill="#0047FF"/>
</svg>
