<svg width="16" height="16" viewBox="0 0 16 16" fill="none" xmlns="http://www.w3.org/2000/svg">
<path d="M5.09609 15.0834C3.92831 15.0834 2.93977 14.6787 2.13046 13.8694C1.32116 13.0601 0.916504 12.0715 0.916504 10.9038C0.916504 10.4135 1.00011 9.93704 1.16734 9.4744C1.33456 9.01176 1.57414 8.59245 1.88609 8.21648L4.82838 4.67794L2.95171 0.916687H13.048L11.1713 4.67794L14.1136 8.21648C14.4255 8.59245 14.6651 9.01176 14.8323 9.4744C14.9996 9.93704 15.0832 10.4135 15.0832 10.9038C15.0832 12.0715 14.6764 13.0601 13.8628 13.8694C13.0493 14.6787 12.0629 15.0834 10.9036 15.0834H5.09609ZM7.99984 11.1169C7.58428 11.1169 7.22935 10.9697 6.93505 10.6754C6.6406 10.3811 6.49338 10.0262 6.49338 9.61065C6.49338 9.19495 6.6406 8.83995 6.93505 8.54565C7.22935 8.25134 7.58428 8.10419 7.99984 8.10419C8.41539 8.10419 8.77032 8.25134 9.06463 8.54565C9.35907 8.83995 9.5063 9.19495 9.5063 9.61065C9.5063 10.0262 9.35907 10.3811 9.06463 10.6754C8.77032 10.9697 8.41539 11.1169 7.99984 11.1169ZM5.97255 4.14585H10.035L11.0207 2.16669H4.979L5.97255 4.14585ZM5.09609 13.8334H10.9036C11.7221 13.8334 12.4149 13.5484 12.9821 12.9784C13.5495 12.4084 13.8332 11.7168 13.8332 10.9038C13.8332 10.5597 13.7741 10.2262 13.6561 9.90315C13.538 9.57995 13.3695 9.28801 13.1505 9.02731L10.128 5.39585H5.89255L2.85713 9.0144C2.6381 9.27509 2.46824 9.56919 2.34755 9.89669C2.22685 10.224 2.1665 10.5597 2.1665 10.9038C2.1665 11.7168 2.4515 12.4084 3.0215 12.9784C3.5915 13.5484 4.28303 13.8334 5.09609 13.8334Z" fill="#0047FF"/>
</svg>
