<svg width="15" height="10" viewBox="0 0 15 10" fill="none" xmlns="http://www.w3.org/2000/svg">
<path d="M7.50127 7.73562C8.2095 7.73562 8.81101 7.48776 9.3058 6.99203C9.80059 6.4963 10.048 5.89432 10.048 5.18609C10.048 4.47786 9.80012 3.87635 9.3044 3.38156C8.80867 2.88677 8.20669 2.63937 7.49846 2.63937C6.79023 2.63937 6.18872 2.88724 5.69393 3.38297C5.19913 3.8787 4.95174 4.48068 4.95174 5.18891C4.95174 5.89714 5.1996 6.49865 5.69533 6.99344C6.19106 7.48823 6.79304 7.73562 7.50127 7.73562ZM7.49986 6.875C7.03111 6.875 6.63268 6.71094 6.30455 6.38281C5.97643 6.05469 5.81236 5.65625 5.81236 5.1875C5.81236 4.71875 5.97643 4.32031 6.30455 3.99219C6.63268 3.66406 7.03111 3.5 7.49986 3.5C7.96861 3.5 8.36705 3.66406 8.69518 3.99219C9.0233 4.32031 9.18736 4.71875 9.18736 5.1875C9.18736 5.65625 9.0233 6.05469 8.69518 6.38281C8.36705 6.71094 7.96861 6.875 7.49986 6.875ZM7.50064 9.5625C6.06346 9.5625 4.75393 9.16604 3.57205 8.37313C2.39018 7.58031 1.51997 6.51844 0.961426 5.1875C1.51997 3.85656 2.38986 2.79469 3.57111 2.00187C4.75247 1.20896 6.06179 0.8125 7.49908 0.8125C8.93627 0.8125 10.2458 1.20896 11.4277 2.00187C12.6096 2.79469 13.4798 3.85656 14.0383 5.1875C13.4798 6.51844 12.6099 7.58031 11.4286 8.37313C10.2473 9.16604 8.93794 9.5625 7.50064 9.5625ZM7.49986 8.625C8.67695 8.625 9.75768 8.3151 10.7421 7.69531C11.7264 7.07552 12.479 6.23958 12.9999 5.1875C12.479 4.13542 11.7264 3.29948 10.7421 2.67969C9.75768 2.0599 8.67695 1.75 7.49986 1.75C6.32278 1.75 5.24205 2.0599 4.25768 2.67969C3.2733 3.29948 2.5207 4.13542 1.99986 5.1875C2.5207 6.23958 3.2733 7.07552 4.25768 7.69531C5.24205 8.3151 6.32278 8.625 7.49986 8.625Z" fill="black"/>
</svg>
