<svg width="26" height="26" viewBox="0 0 26 26" fill="none" xmlns="http://www.w3.org/2000/svg">
<path d="M23.6848 25.1509L14.7871 16.2528C14.0788 16.8376 13.2642 17.2953 12.3434 17.6259C11.4225 17.9564 10.4699 18.1217 9.4856 18.1217C7.06428 18.1217 5.01507 17.2834 3.33797 15.6068C1.66088 13.9301 0.822327 11.8814 0.822327 9.46056C0.822327 7.03995 1.66064 4.99051 3.33726 3.31223C5.01389 1.63419 7.06262 0.795166 9.48347 0.795166C11.9041 0.795166 13.9535 1.63371 15.6318 3.31081C17.3098 4.98791 18.1489 7.03712 18.1489 9.45844C18.1489 10.4702 17.9791 11.4365 17.6396 12.3573C17.2998 13.2781 16.8466 14.079 16.2799 14.76L25.1777 23.6577L23.6848 25.1509ZM9.4856 15.9971C11.311 15.9971 12.857 15.3636 14.1238 14.0966C15.3907 12.8299 16.0242 11.2838 16.0242 9.45844C16.0242 7.63306 15.3907 6.08701 14.1238 4.82027C12.857 3.5533 11.311 2.91981 9.4856 2.91981C7.66022 2.91981 6.11417 3.5533 4.84743 4.82027C3.58046 6.08701 2.94697 7.63306 2.94697 9.45844C2.94697 11.2838 3.58046 12.8299 4.84743 14.0966C6.11417 15.3636 7.66022 15.9971 9.4856 15.9971ZM8.4231 13.2725V10.5209H5.67158V8.39594H8.4231V5.64442H10.5481V8.39594H13.2996V10.5209H10.5481V13.2725H8.4231Z" fill="#0047FF"/>
</svg>
